<svg xmlns="http://www.w3.org/2000/svg" xmlns:xlink="http://www.w3.org/1999/xlink" width="1080" zoomAndPan="magnify" viewBox="0 0 810 809.999993" height="1080" preserveAspectRatio="xMidYMid meet" version="1.0"><defs><g/></defs><rect x="-81" width="972" fill="#ffffff" y="-80.999999" height="971.999992" fill-opacity="1"/><rect x="-81" width="972" fill="#ffffff" y="-80.999999" height="971.999992" fill-opacity="1"/><path fill="#08253f" d="M 395.910156 -6.046875 L 392.75 -5.554688 L 383.273438 -5.554688 L 380.113281 -4.960938 L 376.953125 -4.960938 L 373.792969 -4.46875 L 370.636719 -4.46875 L 367.476562 -3.875 L 363.726562 -3.382812 L 360.566406 -3.382812 L 357.40625 -2.886719 L 354.246094 -2.296875 L 350.59375 -1.800781 L 356.914062 42.523438 L 353.160156 43.019531 L 350.003906 43.511719 L 346.84375 44.003906 L 343.683594 44.597656 L 341.019531 45.089844 L 337.859375 45.585938 L 334.800781 46.175781 L 332.132812 46.671875 L 328.972656 47.164062 L 326.308594 48.25 L 323.148438 48.742188 L 320.484375 49.238281 L 317.324219 49.828125 L 314.660156 50.324219 L 312.09375 51.410156 L 308.933594 51.902344 L 306.269531 52.988281 L 303.601562 53.480469 L 300.445312 54.566406 L 297.777344 55.0625 L 295.210938 56.148438 L 291.953125 56.640625 L 286.820312 58.8125 L 283.5625 59.800781 L 280.996094 60.886719 L 277.738281 61.972656 L 275.171875 63.058594 L 272.011719 64.046875 L 268.851562 65.625 L 265.691406 66.710938 L 263.027344 68.289062 L 245.058594 26.628906 L 241.902344 28.210938 L 238.742188 29.789062 L 235.582031 30.777344 L 232.421875 32.453125 L 229.265625 34.035156 L 222.945312 37.191406 L 219.789062 38.773438 L 216.628906 40.351562 L 213.46875 41.933594 L 210.804688 43.511719 L 207.644531 45.585938 L 201.324219 48.742188 L 198.660156 50.324219 L 195.5 52.496094 L 192.34375 54.074219 L 189.777344 56.148438 L 186.617188 57.726562 L 183.457031 59.800781 L 180.792969 61.972656 L 177.632812 63.550781 L 174.472656 65.625 L 171.808594 67.796875 L 168.648438 69.871094 L 165.984375 71.945312 L 162.824219 74.015625 L 160.160156 76.1875 L 157 78.855469 L 153.839844 80.925781 L 151.273438 83.59375 L 148.113281 85.664062 L 176.054688 119.921875 L 173.882812 121.503906 L 171.808594 123.082031 L 170.226562 124.660156 L 168.054688 126.734375 L 165.984375 128.414062 L 163.910156 129.894531 L 158.085938 135.71875 L 156.011719 137.296875 L 153.839844 139.46875 L 151.765625 141.050781 L 150.1875 143.121094 L 145.941406 147.367188 L 143.871094 148.945312 L 141.699219 151.019531 L 140.214844 153.09375 L 138.042969 155.265625 L 135.972656 157.832031 L 131.726562 162.078125 L 129.652344 164.742188 L 128.074219 166.816406 L 125.902344 169.480469 L 123.828125 171.554688 L 121.753906 174.21875 L 119.582031 176.785156 L 117.511719 179.453125 L 115.929688 182.117188 L 113.757812 184.785156 L 111.6875 187.449219 L 76.34375 161.582031 L 74.761719 164.25 L 73.183594 166.324219 L 71.109375 168.988281 L 69.53125 171.554688 L 67.953125 173.628906 L 66.273438 176.292969 L 64.792969 178.957031 L 62.621094 181.625 L 61.042969 184.191406 L 59.460938 186.855469 L 57.882812 189.523438 L 56.300781 192.089844 L 54.722656 194.753906 L 53.144531 197.320312 L 51.5625 200.578125 L 49.984375 203.144531 L 48.40625 206.402344 L 46.824219 208.96875 L 45.246094 212.128906 L 43.664062 214.796875 L 42.085938 217.953125 L 40.507812 221.113281 L 38.925781 224.273438 L 37.839844 227.433594 L 36.261719 230.589844 L 34.683594 233.75 L 33.101562 236.910156 L 31.523438 240.066406 L 30.4375 243.820312 L 28.957031 246.980469 L 27.375 250.632812 L 25.699219 254.285156 L 66.273438 270.078125 L 65.285156 272.746094 L 64.199219 275.410156 L 63.113281 278.078125 L 62.128906 280.644531 L 61.042969 283.308594 L 60.546875 285.972656 L 59.460938 288.542969 L 58.472656 291.207031 L 57.386719 293.871094 L 56.796875 297.03125 L 55.808594 299.597656 L 55.214844 302.261719 L 54.230469 305.421875 L 53.734375 308.089844 L 52.648438 310.753906 L 52.058594 313.8125 L 51.5625 316.480469 L 51.070312 319.738281 L 49.984375 322.304688 L 49.492188 325.464844 L 48.996094 328.621094 L 48.40625 331.78125 L 47.910156 334.941406 L 46.824219 338.101562 L 46.332031 341.257812 L 45.738281 344.417969 L 45.246094 347.578125 L 44.75 350.738281 L 44.160156 353.894531 L 43.664062 357.648438 L 43.171875 360.804688 L 43.171875 364.457031 L 1.511719 359.71875 L 0.917969 362.878906 L 0.917969 366.039062 L 0.425781 369.199219 L 0.425781 375.023438 L -0.0664062 378.179688 L -0.0664062 436.625 L 0.425781 439.785156 L 0.425781 445.609375 L 0.917969 448.769531 L 0.917969 451.925781 L 1.511719 455.085938 L 43.171875 450.347656 L 43.171875 454 L 43.664062 457.160156 L 44.160156 460.910156 L 44.75 464.070312 L 45.246094 467.230469 L 45.738281 470.386719 L 46.332031 473.546875 L 46.824219 476.707031 L 47.910156 479.867188 L 48.40625 483.023438 L 48.996094 486.183594 L 49.492188 489.34375 L 49.984375 492.5 L 51.070312 495.070312 L 51.5625 498.328125 L 52.058594 500.992188 L 52.648438 504.050781 L 53.734375 506.71875 L 54.230469 509.382812 L 55.214844 512.542969 L 55.808594 515.207031 L 56.796875 517.773438 L 57.386719 520.933594 L 58.472656 523.597656 L 59.460938 526.265625 L 60.546875 528.832031 L 61.042969 531.496094 L 62.128906 534.164062 L 63.113281 536.730469 L 64.199219 539.394531 L 65.285156 542.0625 L 66.273438 544.726562 L 25.699219 560.523438 L 27.375 564.175781 L 28.957031 567.828125 L 30.4375 570.988281 L 31.523438 574.738281 L 33.101562 577.898438 L 34.683594 581.054688 L 37.839844 587.375 L 38.925781 590.535156 L 40.507812 593.691406 L 43.664062 600.011719 L 45.246094 602.675781 L 46.824219 605.835938 L 48.40625 608.402344 L 49.984375 611.660156 L 51.5625 614.226562 L 53.144531 617.484375 L 54.722656 620.050781 L 56.300781 622.71875 L 57.882812 625.285156 L 59.460938 627.949219 L 61.042969 630.613281 L 62.621094 633.183594 L 64.792969 635.847656 L 66.273438 638.511719 L 67.953125 641.179688 L 69.53125 643.25 L 71.109375 645.816406 L 73.183594 648.484375 L 74.761719 650.558594 L 76.34375 653.222656 L 111.6875 627.355469 L 113.757812 630.023438 L 115.929688 632.6875 L 117.511719 635.355469 L 119.582031 638.019531 L 121.753906 640.585938 L 123.828125 643.25 L 125.902344 645.324219 L 128.074219 647.988281 L 129.652344 650.0625 L 131.726562 652.730469 L 133.800781 654.800781 L 135.972656 656.972656 L 138.042969 659.539062 L 140.214844 661.710938 L 141.699219 663.785156 L 143.871094 665.859375 L 145.941406 667.4375 L 150.1875 671.683594 L 151.765625 673.757812 L 153.839844 675.335938 L 156.011719 677.507812 L 158.085938 679.085938 L 160.160156 681.160156 L 161.738281 682.742188 L 163.910156 684.914062 L 165.984375 686.394531 L 168.054688 688.070312 L 170.226562 690.144531 L 171.808594 691.722656 L 173.882812 693.304688 L 176.054688 694.882812 L 148.113281 729.140625 L 151.273438 731.214844 L 153.839844 733.878906 L 157 735.953125 L 160.160156 738.617188 L 162.824219 740.789062 L 165.984375 742.863281 L 168.648438 744.9375 L 171.808594 747.007812 L 174.472656 749.179688 L 177.632812 751.253906 L 180.792969 752.832031 L 183.457031 755.003906 L 186.617188 757.078125 L 189.777344 758.660156 L 192.34375 760.730469 L 195.5 762.3125 L 198.660156 764.484375 L 201.324219 766.0625 L 204.484375 767.640625 L 207.644531 769.222656 L 210.804688 771.292969 L 213.46875 772.875 L 216.628906 774.453125 L 219.789062 776.035156 L 222.945312 777.613281 L 226.105469 779.191406 L 229.265625 780.773438 L 232.421875 782.351562 L 235.582031 784.03125 L 238.742188 785.015625 L 241.902344 786.597656 L 245.058594 788.175781 L 263.027344 746.515625 L 265.691406 748.09375 L 268.851562 749.179688 L 272.011719 750.761719 L 275.171875 751.746094 L 277.738281 752.832031 L 280.996094 753.917969 L 283.5625 755.003906 L 286.820312 755.992188 L 291.953125 758.164062 L 295.210938 758.660156 L 297.777344 759.746094 L 300.445312 760.238281 L 303.601562 761.324219 L 306.269531 761.816406 L 308.933594 762.902344 L 312.09375 763.398438 L 314.660156 764.484375 L 317.324219 764.976562 L 320.484375 765.570312 L 323.148438 766.0625 L 326.308594 766.554688 L 328.972656 767.640625 L 332.132812 768.136719 L 334.800781 768.628906 L 337.859375 769.222656 L 341.019531 769.714844 L 343.683594 770.207031 L 346.84375 770.800781 L 350.003906 771.292969 L 353.160156 771.789062 L 356.914062 772.28125 L 350.59375 816.609375 L 354.246094 817.101562 L 357.40625 817.695312 L 360.566406 818.1875 L 363.726562 818.1875 L 367.476562 818.679688 L 370.636719 819.273438 L 373.792969 819.273438 L 376.953125 819.765625 L 380.113281 819.765625 L 383.273438 820.359375 L 392.75 820.359375 L 395.910156 820.851562 L 420.6875 820.851562 L 423.351562 820.359375 L 429.671875 820.359375 L 432.832031 819.765625 L 435.988281 819.765625 L 439.148438 819.273438 L 442.308594 819.273438 L 445.46875 818.679688 L 448.625 818.1875 L 451.785156 818.1875 L 447.046875 772.28125 L 450.207031 771.789062 L 453.957031 771.292969 L 457.117188 770.800781 L 460.277344 770.800781 L 463.929688 770.207031 L 467.085938 769.222656 L 470.742188 768.628906 L 473.898438 768.136719 L 477.652344 767.640625 L 480.808594 767.148438 L 483.96875 766.0625 L 487.621094 765.570312 L 490.78125 764.484375 L 493.941406 763.890625 L 497.097656 762.902344 L 500.851562 761.816406 L 504.011719 761.324219 L 507.167969 760.238281 L 510.328125 759.152344 L 513.488281 758.164062 L 516.644531 757.078125 L 519.804688 755.992188 L 523.0625 755.003906 L 526.125 753.917969 L 529.28125 752.832031 L 532.441406 751.253906 L 535.601562 750.167969 L 538.265625 749.179688 L 541.425781 747.601562 L 544.585938 746.515625 L 547.25 744.9375 L 550.410156 743.949219 L 568.378906 786.101562 L 571.535156 785.015625 L 574.695312 783.4375 L 577.261719 781.859375 L 580.421875 780.773438 L 583.085938 779.191406 L 586.246094 777.613281 L 588.910156 776.625 L 591.476562 775.046875 L 594.636719 773.367188 L 597.304688 771.789062 L 599.96875 770.800781 L 602.535156 769.222656 L 605.300781 767.640625 L 607.867188 766.0625 L 611.023438 764.484375 L 613.691406 762.902344 L 615.765625 761.324219 L 618.429688 759.746094 L 620.996094 758.164062 L 623.660156 756.484375 L 626.328125 755.003906 L 628.992188 753.425781 L 631.066406 751.746094 L 633.730469 750.167969 L 635.804688 748.09375 L 638.46875 746.515625 L 640.542969 744.9375 L 643.207031 743.355469 L 645.378906 741.28125 L 647.949219 739.703125 L 650.121094 738.125 L 652.191406 735.953125 L 624.253906 699.128906 L 626.917969 697.550781 L 628.992188 695.378906 L 631.558594 693.304688 L 634.226562 691.722656 L 636.890625 689.652344 L 641.628906 684.914062 L 644.292969 682.742188 L 646.863281 680.667969 L 648.933594 678.59375 L 651.601562 675.929688 L 654.265625 673.757812 L 656.832031 671.191406 L 659.003906 668.523438 L 661.671875 666.453125 L 664.335938 663.785156 L 666.410156 661.121094 L 669.074219 658.453125 L 671.148438 656.382812 L 673.21875 653.714844 L 675.886719 651.148438 L 678.058594 648.484375 L 680.132812 645.816406 L 682.203125 643.746094 L 684.277344 641.179688 L 686.449219 638.511719 L 688.027344 635.847656 L 690.101562 633.773438 L 691.78125 631.109375 L 693.855469 628.9375 L 695.433594 626.371094 L 697.011719 624.296875 L 733.933594 651.644531 L 736.007812 649.074219 L 737.585938 646.410156 L 739.757812 644.238281 L 741.242188 641.671875 L 742.917969 639.007812 L 744.992188 636.441406 L 746.570312 633.773438 L 748.152344 631.109375 L 750.222656 627.949219 L 751.804688 625.285156 L 753.382812 622.71875 L 754.964844 619.558594 L 756.542969 616.890625 L 758.121094 614.226562 L 759.703125 611.066406 L 761.28125 608.402344 L 762.960938 605.242188 L 764.441406 602.675781 L 766.117188 599.515625 L 767.699219 596.851562 L 769.179688 593.691406 L 770.265625 591.027344 L 771.84375 587.867188 L 772.929688 585.300781 L 774.511719 582.140625 L 775.597656 579.476562 L 777.175781 576.8125 L 778.164062 573.652344 L 779.25 570.988281 L 780.234375 568.417969 L 781.421875 565.753906 L 782.40625 563.089844 L 739.757812 545.8125 L 741.242188 542.554688 L 743.414062 536.234375 L 744.5 533.078125 L 745.484375 529.917969 L 746.570312 526.265625 L 747.65625 523.105469 L 748.644531 519.945312 L 749.730469 516.789062 L 750.816406 513.628906 L 751.804688 510.46875 L 752.394531 506.71875 L 753.382812 503.558594 L 754.46875 500.398438 L 754.964844 497.242188 L 756.050781 494.082031 L 757.035156 487.761719 L 758.121094 484.605469 L 758.714844 481.445312 L 759.207031 478.285156 L 759.703125 475.125 L 760.292969 471.96875 L 760.6875 468.808594 L 761.28125 465.648438 L 761.28125 462.390625 L 761.875 459.824219 L 762.367188 456.664062 L 762.367188 453.507812 L 762.960938 450.347656 L 762.960938 444.523438 L 808.273438 448.769531 L 808.765625 445.609375 L 808.765625 442.941406 L 809.359375 439.785156 L 809.359375 436.625 L 809.851562 433.464844 L 809.851562 408.191406 L 809.753906 407.402344 L 809.851562 406.613281 L 809.851562 381.339844 L 809.359375 378.179688 L 809.359375 375.023438 L 808.765625 371.863281 L 808.765625 369.195312 L 808.273438 366.039062 L 762.960938 370.28125 L 762.960938 364.457031 L 762.367188 361.300781 L 762.367188 358.140625 L 761.875 354.980469 L 761.28125 352.414062 L 761.28125 349.15625 L 760.6875 345.996094 L 760.292969 342.839844 L 759.703125 339.679688 L 759.207031 336.519531 L 758.714844 333.359375 L 758.121094 330.203125 L 757.035156 327.042969 L 756.050781 320.722656 L 754.964844 317.566406 L 754.46875 314.40625 L 753.382812 311.246094 L 752.394531 308.085938 L 751.804688 304.335938 L 750.816406 301.175781 L 749.730469 298.019531 L 748.644531 294.859375 L 747.65625 291.699219 L 746.570312 288.539062 L 745.484375 284.886719 L 744.5 281.730469 L 741.242188 272.25 L 739.757812 268.992188 L 782.40625 251.71875 L 781.421875 249.050781 L 780.234375 246.386719 L 779.25 243.820312 L 778.164062 241.152344 L 777.175781 237.996094 L 775.597656 235.328125 L 774.511719 232.664062 L 772.929688 229.503906 L 771.84375 226.9375 L 770.265625 223.777344 L 769.179688 221.113281 L 767.699219 217.953125 L 766.117188 215.289062 L 764.441406 212.128906 L 762.960938 209.5625 L 761.28125 206.402344 L 759.703125 203.738281 L 758.121094 200.578125 L 756.542969 197.914062 L 754.964844 195.246094 L 753.382812 192.089844 L 751.804688 189.523438 L 750.222656 186.855469 L 748.152344 183.699219 L 746.570312 181.03125 L 744.992188 178.367188 L 742.917969 175.800781 L 741.242188 173.132812 L 739.757812 170.566406 L 737.585938 168.394531 L 736.007812 165.730469 L 733.933594 163.164062 L 697.011719 190.507812 L 695.433594 188.4375 L 693.855469 185.871094 L 691.78125 183.699219 L 690.101562 181.03125 L 688.027344 178.957031 L 686.449219 176.292969 L 684.277344 173.628906 L 682.203125 171.0625 L 680.132812 168.988281 L 678.058594 166.320312 L 675.886719 163.65625 L 673.21875 161.089844 L 671.148438 158.425781 L 666.410156 153.6875 L 664.335938 151.019531 L 661.671875 148.355469 L 659.003906 146.28125 L 656.832031 143.617188 L 654.265625 141.050781 L 651.601562 138.878906 L 648.933594 136.210938 L 646.863281 134.136719 L 644.292969 132.066406 L 641.628906 129.894531 L 636.890625 125.15625 L 634.226562 123.082031 L 631.558594 121.503906 L 628.992188 119.429688 L 626.917969 117.257812 L 624.253906 115.675781 L 652.191406 78.855469 L 650.121094 76.683594 L 647.949219 75.101562 L 645.378906 73.523438 L 643.207031 71.449219 L 640.542969 69.871094 L 638.46875 68.289062 L 635.804688 66.710938 L 633.730469 64.636719 L 631.066406 63.058594 L 628.992188 61.378906 L 626.328125 59.800781 L 623.660156 58.320312 L 620.996094 56.640625 L 618.429688 55.0625 L 615.765625 53.480469 L 613.691406 51.902344 L 611.023438 50.324219 L 607.867188 48.742188 L 605.300781 47.164062 L 602.535156 45.585938 L 599.96875 44.003906 L 597.304688 43.015625 L 594.636719 41.4375 L 591.476562 39.757812 L 588.910156 38.179688 L 586.246094 37.191406 L 583.085938 35.613281 L 580.421875 34.035156 L 577.261719 32.949219 L 574.695312 31.367188 L 571.535156 29.789062 L 568.378906 28.703125 L 550.410156 70.855469 L 547.25 69.871094 L 544.585938 68.289062 L 541.425781 67.203125 L 538.265625 65.625 L 535.601562 64.636719 L 532.441406 63.550781 L 529.28125 61.972656 L 526.125 60.886719 L 523.0625 59.800781 L 519.804688 58.8125 L 516.644531 57.726562 L 513.488281 56.640625 L 510.328125 55.652344 L 507.167969 54.566406 L 504.011719 53.480469 L 500.851562 52.988281 L 497.097656 51.902344 L 493.941406 50.914062 L 490.78125 50.324219 L 487.621094 49.238281 L 483.96875 48.742188 L 480.808594 47.65625 L 477.652344 47.164062 L 473.898438 46.671875 L 470.742188 46.175781 L 467.085938 45.585938 L 463.929688 44.597656 L 460.277344 44.003906 L 457.117188 44.003906 L 453.957031 43.511719 L 450.207031 43.015625 L 447.046875 42.523438 L 451.785156 -3.382812 L 448.625 -3.382812 L 445.46875 -3.875 L 442.308594 -4.46875 L 439.148438 -4.46875 L 435.988281 -4.960938 L 432.832031 -4.960938 L 429.671875 -5.554688 L 423.351562 -5.554688 L 420.6875 -6.046875 Z M 404.398438 102.546875 L 421.28125 103.042969 L 437.472656 104.128906 L 453.957031 106.792969 L 470.246094 109.953125 L 486.632812 114.195312 L 502.429688 119.429688 L 518.226562 125.15625 L 534.023438 132.066406 L 548.828125 139.964844 L 564.132812 148.945312 L 578.347656 158.425781 L 592.070312 169.480469 L 605.792969 180.539062 L 618.921875 193.175781 L 631.066406 206.898438 L 643.207031 221.113281 L 642.121094 221.113281 C 653.070312 235.253906 662.820312 250.34375 671.148438 266.328125 L 671.148438 265.933594 L 672.824219 269.683594 C 692.691406 309.023438 704.128906 353.308594 704.910156 400.195312 L 704.8125 400.195312 C 704.882812 402.585938 704.976562 404.996094 705.007812 407.402344 C 704.976562 409.8125 704.882812 412.222656 704.8125 414.609375 L 704.910156 414.609375 C 704.128906 461.5 692.691406 505.78125 672.824219 545.121094 L 671.148438 548.871094 L 671.148438 548.476562 C 662.820312 564.464844 653.070312 579.550781 642.121094 593.691406 L 643.207031 593.691406 L 631.066406 607.910156 L 618.921875 621.632812 L 605.792969 634.269531 L 592.070312 645.324219 L 578.347656 656.382812 L 564.132812 665.859375 L 548.828125 674.84375 L 534.023438 682.742188 L 518.226562 689.652344 L 502.429688 695.378906 L 486.632812 700.609375 L 470.246094 704.855469 L 453.957031 708.015625 L 437.472656 710.679688 L 421.28125 711.765625 L 404.398438 712.257812 L 388.011719 711.765625 L 371.128906 710.679688 L 354.742188 708.015625 L 338.453125 704.855469 L 322.0625 700.609375 L 306.269531 695.378906 L 290.472656 689.652344 L 274.578125 682.742188 L 259.867188 674.347656 L 244.566406 665.859375 L 230.351562 655.886719 L 216.132812 645.324219 L 202.90625 633.183594 L 189.777344 620.546875 L 177.039062 606.921875 L 165.488281 592.605469 L 166.082031 592.605469 C 155.058594 578.230469 145.382812 562.859375 137.058594 546.601562 L 136.957031 547.292969 L 135.675781 543.839844 C 116.195312 504.8125 104.863281 461 104.085938 414.609375 L 104.183594 414.609375 C 104.109375 412.222656 104.015625 409.8125 103.984375 407.402344 C 104.015625 404.996094 104.109375 402.585938 104.183594 400.195312 L 104.085938 400.195312 C 104.871094 353.828125 116.203125 309.980469 135.675781 270.96875 L 136.957031 267.511719 L 137.058594 268.203125 C 145.382812 251.949219 155.058594 236.574219 166.082031 222.199219 L 165.488281 222.199219 L 177.039062 207.882812 L 189.777344 194.261719 L 202.90625 181.625 L 216.132812 169.480469 L 230.351562 158.917969 L 244.566406 148.945312 L 259.867188 140.457031 L 274.578125 132.066406 L 290.472656 125.15625 L 306.269531 119.429688 L 322.0625 114.195312 L 338.453125 109.953125 L 354.742188 106.792969 L 371.128906 104.128906 L 388.011719 103.042969 Z M 404.398438 102.546875 " fill-opacity="1" fill-rule="nonzero"/><g fill="#08253f" fill-opacity="1"><g transform="translate(228.821268, 307.608269)"><g><path d="M 29.535156 -29.382812 C 26.460938 -30.613281 15.152344 -32.304688 15.152344 -36.996094 C 15.152344 -40.457031 19.382812 -41.457031 21.921875 -41.457031 C 24.226562 -41.457031 26.996094 -40.765625 28.457031 -39.378906 C 29.382812 -38.457031 29.765625 -37.84375 30.074219 -37.074219 C 30.457031 -36.074219 30.6875 -34.996094 32.152344 -34.996094 L 39.6875 -34.996094 C 41.457031 -34.996094 41.917969 -35.304688 41.917969 -37.148438 C 41.917969 -47.304688 31.226562 -51.765625 21.460938 -51.765625 C 11.84375 -51.378906 2.769531 -46.457031 2.769531 -36.457031 C 2.769531 -26.691406 9.921875 -23.613281 17.691406 -21.152344 C 24.226562 -19.074219 31.074219 -19 31.074219 -14.691406 C 31.074219 -10.382812 27.691406 -9.460938 23.535156 -9.460938 C 20.691406 -9.460938 17.535156 -10.152344 16 -12 C 15 -13.152344 14.613281 -14.152344 14.535156 -15.152344 C 14.382812 -17.074219 13.539062 -17.304688 11.769531 -17.304688 L 4.308594 -17.304688 C 2.539062 -17.304688 2.078125 -16.921875 2.078125 -15.152344 C 2.078125 -4.382812 13.152344 1.152344 22.765625 1.152344 C 34.613281 1.152344 43.226562 -4.078125 43.226562 -15 C 43.226562 -25.460938 35.074219 -27.691406 29.535156 -29.382812 Z M 29.535156 -29.382812 "/></g></g></g><g fill="#08253f" fill-opacity="1"><g transform="translate(272.047165, 307.608269)"><g><path d="M 27.691406 -10.539062 L 22.84375 -10.539062 L 22.84375 -39.917969 L 27.457031 -39.917969 C 29.226562 -39.917969 29.691406 -40.765625 29.691406 -42.148438 L 29.691406 -48.378906 C 29.691406 -49.765625 29.226562 -50.609375 27.457031 -50.609375 L 6.078125 -50.609375 C 4.308594 -50.609375 3.847656 -49.765625 3.847656 -48.378906 L 3.847656 -42.148438 C 3.847656 -40.765625 4.308594 -39.917969 6.078125 -39.917969 L 10.769531 -39.917969 L 10.769531 -10.539062 L 5.921875 -10.539062 C 4.152344 -10.539062 3.691406 -9.691406 3.691406 -8.308594 L 3.691406 -2.230469 C 3.691406 -0.847656 4.152344 0 5.921875 0 L 27.691406 0 C 29.457031 0 29.921875 -0.847656 29.921875 -2.230469 L 29.921875 -8.308594 C 29.921875 -9.691406 29.457031 -10.539062 27.691406 -10.539062 Z M 27.691406 -10.539062 "/></g></g></g><g fill="#08253f" fill-opacity="1"><g transform="translate(302.889832, 307.608269)"><g><path d="M 29.535156 -29.382812 C 26.460938 -30.613281 15.152344 -32.304688 15.152344 -36.996094 C 15.152344 -40.457031 19.382812 -41.457031 21.921875 -41.457031 C 24.226562 -41.457031 26.996094 -40.765625 28.457031 -39.378906 C 29.382812 -38.457031 29.765625 -37.84375 30.074219 -37.074219 C 30.457031 -36.074219 30.6875 -34.996094 32.152344 -34.996094 L 39.6875 -34.996094 C 41.457031 -34.996094 41.917969 -35.304688 41.917969 -37.148438 C 41.917969 -47.304688 31.226562 -51.765625 21.460938 -51.765625 C 11.84375 -51.378906 2.769531 -46.457031 2.769531 -36.457031 C 2.769531 -26.691406 9.921875 -23.613281 17.691406 -21.152344 C 24.226562 -19.074219 31.074219 -19 31.074219 -14.691406 C 31.074219 -10.382812 27.691406 -9.460938 23.535156 -9.460938 C 20.691406 -9.460938 17.535156 -10.152344 16 -12 C 15 -13.152344 14.613281 -14.152344 14.535156 -15.152344 C 14.382812 -17.074219 13.539062 -17.304688 11.769531 -17.304688 L 4.308594 -17.304688 C 2.539062 -17.304688 2.078125 -16.921875 2.078125 -15.152344 C 2.078125 -4.382812 13.152344 1.152344 22.765625 1.152344 C 34.613281 1.152344 43.226562 -4.078125 43.226562 -15 C 43.226562 -25.460938 35.074219 -27.691406 29.535156 -29.382812 Z M 29.535156 -29.382812 "/></g></g></g><g fill="#08253f" fill-opacity="1"><g transform="translate(346.115724, 307.608269)"><g><path d="M 39.917969 -50.609375 L 4.230469 -50.609375 C 2.460938 -50.609375 2 -49.765625 2 -48.378906 L 2 -41.996094 C 2 -40.613281 2.460938 -39.765625 4.230469 -39.765625 L 16.074219 -39.765625 L 16.074219 -2.230469 C 16.074219 -0.460938 16.921875 0 18.304688 0 L 25.921875 0 C 27.304688 0 28.152344 -0.460938 28.152344 -2.230469 L 28.152344 -39.765625 L 39.917969 -39.765625 C 41.6875 -39.765625 42.148438 -40.613281 42.148438 -41.996094 L 42.148438 -48.378906 C 42.148438 -49.765625 41.6875 -50.609375 39.917969 -50.609375 Z M 39.917969 -50.609375 "/></g></g></g><g fill="#08253f" fill-opacity="1"><g transform="translate(386.957282, 307.608269)"><g><path d="M 42.378906 -10.769531 L 17.84375 -10.769531 L 17.84375 -20.921875 L 38.457031 -20.921875 C 40.226562 -20.921875 40.6875 -21.765625 40.6875 -23.152344 L 40.6875 -29.152344 C 40.6875 -30.535156 40.226562 -31.382812 38.457031 -31.382812 L 17.84375 -31.382812 L 17.84375 -39.765625 L 41.074219 -39.765625 C 42.84375 -39.765625 43.304688 -40.613281 43.304688 -41.996094 L 43.304688 -48.378906 C 43.304688 -49.765625 42.84375 -50.609375 41.074219 -50.609375 L 7.921875 -50.609375 C 6.152344 -50.609375 5.691406 -49.765625 5.691406 -48.378906 L 5.691406 -2.230469 C 5.691406 -0.847656 6.152344 0 7.921875 0 L 42.378906 0 C 44.148438 0 44.609375 -0.847656 44.609375 -2.230469 L 44.609375 -8.539062 C 44.609375 -9.921875 44.148438 -10.769531 42.378906 -10.769531 Z M 42.378906 -10.769531 "/></g></g></g><g fill="#08253f" fill-opacity="1"><g transform="translate(431.875296, 307.608269)"><g><path d="M 51.070312 -50.6875 L 43.6875 -50.6875 C 41.148438 -50.6875 40.765625 -48.996094 40.226562 -48.074219 L 29.613281 -29.152344 L 19.074219 -48.074219 C 18.460938 -48.996094 18.152344 -50.6875 15.535156 -50.6875 L 7.921875 -50.6875 C 6.152344 -50.6875 5.691406 -49.839844 5.691406 -48.457031 L 5.691406 -2.230469 C 5.691406 -0.460938 6.539062 0 7.921875 0 L 15.535156 0 C 16.921875 0 17.765625 -0.460938 17.765625 -2.230469 L 17.765625 -28.304688 L 25.535156 -14.84375 C 25.921875 -14.230469 26.535156 -13.230469 27.691406 -13.230469 L 31.535156 -13.230469 C 32.6875 -13.230469 33.382812 -14.230469 33.765625 -14.84375 L 41.457031 -28.304688 L 41.457031 -2.230469 C 41.457031 -0.460938 42.304688 0 43.6875 0 L 51.070312 0 C 52.457031 0 53.300781 -0.460938 53.300781 -2.230469 L 53.300781 -48.457031 C 53.300781 -49.839844 52.839844 -50.6875 51.070312 -50.6875 Z M 51.070312 -50.6875 "/></g></g></g><g fill="#08253f" fill-opacity="1"><g transform="translate(487.561352, 307.608269)"><g><path d="M 49.226562 -2.152344 L 32.226562 -48.226562 C 31.535156 -49.839844 30.765625 -50.609375 29.074219 -50.609375 L 21.691406 -50.609375 C 20 -50.609375 19.152344 -49.839844 18.535156 -48.226562 L 1.460938 -2.152344 C 1.078125 -1.230469 1.078125 0 2.769531 0 L 10.84375 0 C 12.539062 0 13.152344 -0.460938 13.769531 -2.308594 L 15.921875 -8.382812 L 34.765625 -8.382812 L 36.917969 -2.308594 C 37.535156 -0.460938 38.148438 0 39.84375 0 L 47.917969 0 C 49.609375 0 49.609375 -1.230469 49.226562 -2.152344 Z M 25.382812 -36.148438 L 31.152344 -19.152344 L 19.613281 -19.152344 Z M 25.382812 -36.148438 "/></g></g></g><g fill="#08253f" fill-opacity="1"><g transform="translate(534.63297, 307.608269)"><g><path d="M 29.535156 -29.382812 C 26.460938 -30.613281 15.152344 -32.304688 15.152344 -36.996094 C 15.152344 -40.457031 19.382812 -41.457031 21.921875 -41.457031 C 24.226562 -41.457031 26.996094 -40.765625 28.457031 -39.378906 C 29.382812 -38.457031 29.765625 -37.84375 30.074219 -37.074219 C 30.457031 -36.074219 30.6875 -34.996094 32.152344 -34.996094 L 39.6875 -34.996094 C 41.457031 -34.996094 41.917969 -35.304688 41.917969 -37.148438 C 41.917969 -47.304688 31.226562 -51.765625 21.460938 -51.765625 C 11.84375 -51.378906 2.769531 -46.457031 2.769531 -36.457031 C 2.769531 -26.691406 9.921875 -23.613281 17.691406 -21.152344 C 24.226562 -19.074219 31.074219 -19 31.074219 -14.691406 C 31.074219 -10.382812 27.691406 -9.460938 23.535156 -9.460938 C 20.691406 -9.460938 17.535156 -10.152344 16 -12 C 15 -13.152344 14.613281 -14.152344 14.535156 -15.152344 C 14.382812 -17.074219 13.539062 -17.304688 11.769531 -17.304688 L 4.308594 -17.304688 C 2.539062 -17.304688 2.078125 -16.921875 2.078125 -15.152344 C 2.078125 -4.382812 13.152344 1.152344 22.765625 1.152344 C 34.613281 1.152344 43.226562 -4.078125 43.226562 -15 C 43.226562 -25.460938 35.074219 -27.691406 29.535156 -29.382812 Z M 29.535156 -29.382812 "/></g></g></g><g fill="#08253f" fill-opacity="1"><g transform="translate(149.595043, 387.01477)"><g><path d="M 27.691406 -10.539062 L 22.84375 -10.539062 L 22.84375 -39.917969 L 27.457031 -39.917969 C 29.226562 -39.917969 29.691406 -40.765625 29.691406 -42.148438 L 29.691406 -48.378906 C 29.691406 -49.765625 29.226562 -50.609375 27.457031 -50.609375 L 6.078125 -50.609375 C 4.308594 -50.609375 3.847656 -49.765625 3.847656 -48.378906 L 3.847656 -42.148438 C 3.847656 -40.765625 4.308594 -39.917969 6.078125 -39.917969 L 10.769531 -39.917969 L 10.769531 -10.539062 L 5.921875 -10.539062 C 4.152344 -10.539062 3.691406 -9.691406 3.691406 -8.308594 L 3.691406 -2.230469 C 3.691406 -0.847656 4.152344 0 5.921875 0 L 27.691406 0 C 29.457031 0 29.921875 -0.847656 29.921875 -2.230469 L 29.921875 -8.308594 C 29.921875 -9.691406 29.457031 -10.539062 27.691406 -10.539062 Z M 27.691406 -10.539062 "/></g></g></g><g fill="#08253f" fill-opacity="1"><g transform="translate(180.437711, 387.01477)"><g><path d="M 44.535156 -50.609375 L 37.148438 -50.609375 C 35.765625 -50.609375 34.917969 -50.148438 34.917969 -48.378906 L 34.917969 -21.691406 L 18.613281 -47.996094 C 17.613281 -49.535156 17.074219 -50.609375 15.152344 -50.609375 L 7.921875 -50.609375 C 6.152344 -50.609375 5.691406 -49.765625 5.691406 -48.378906 L 5.691406 -2.230469 C 5.691406 -0.460938 6.539062 0 7.921875 0 L 15.535156 0 C 16.921875 0 17.765625 -0.460938 17.765625 -2.230469 L 17.765625 -28.996094 L 34.074219 -2.613281 C 35.074219 -1.078125 35.613281 0 37.535156 0 L 44.535156 0 C 46.304688 0 46.765625 -0.847656 46.765625 -2.230469 L 46.765625 -48.378906 C 46.765625 -50.148438 45.917969 -50.609375 44.535156 -50.609375 Z M 44.535156 -50.609375 "/></g></g></g><g fill="#08253f" fill-opacity="1"><g transform="translate(229.586025, 387.01477)"><g><path d="M 39.917969 -50.609375 L 4.230469 -50.609375 C 2.460938 -50.609375 2 -49.765625 2 -48.378906 L 2 -41.996094 C 2 -40.613281 2.460938 -39.765625 4.230469 -39.765625 L 16.074219 -39.765625 L 16.074219 -2.230469 C 16.074219 -0.460938 16.921875 0 18.304688 0 L 25.921875 0 C 27.304688 0 28.152344 -0.460938 28.152344 -2.230469 L 28.152344 -39.765625 L 39.917969 -39.765625 C 41.6875 -39.765625 42.148438 -40.613281 42.148438 -41.996094 L 42.148438 -48.378906 C 42.148438 -49.765625 41.6875 -50.609375 39.917969 -50.609375 Z M 39.917969 -50.609375 "/></g></g></g><g fill="#08253f" fill-opacity="1"><g transform="translate(270.427571, 387.01477)"><g><path d="M 42.378906 -10.769531 L 17.84375 -10.769531 L 17.84375 -20.921875 L 38.457031 -20.921875 C 40.226562 -20.921875 40.6875 -21.765625 40.6875 -23.152344 L 40.6875 -29.152344 C 40.6875 -30.535156 40.226562 -31.382812 38.457031 -31.382812 L 17.84375 -31.382812 L 17.84375 -39.765625 L 41.074219 -39.765625 C 42.84375 -39.765625 43.304688 -40.613281 43.304688 -41.996094 L 43.304688 -48.378906 C 43.304688 -49.765625 42.84375 -50.609375 41.074219 -50.609375 L 7.921875 -50.609375 C 6.152344 -50.609375 5.691406 -49.765625 5.691406 -48.378906 L 5.691406 -2.230469 C 5.691406 -0.847656 6.152344 0 7.921875 0 L 42.378906 0 C 44.148438 0 44.609375 -0.847656 44.609375 -2.230469 L 44.609375 -8.539062 C 44.609375 -9.921875 44.148438 -10.769531 42.378906 -10.769531 Z M 42.378906 -10.769531 "/></g></g></g><g fill="#08253f" fill-opacity="1"><g transform="translate(315.345585, 387.01477)"><g><path d="M 39.917969 -10.769531 L 17.765625 -10.769531 L 17.765625 -48.378906 C 17.765625 -50.148438 16.921875 -50.609375 15.535156 -50.609375 L 7.921875 -50.609375 C 6.539062 -50.609375 5.691406 -50.148438 5.691406 -48.378906 L 5.691406 -2.230469 C 5.691406 -0.847656 6.152344 0 7.921875 0 L 39.917969 0 C 41.6875 0 42.148438 -0.847656 42.148438 -2.230469 L 42.148438 -8.539062 C 42.148438 -9.921875 41.6875 -10.769531 39.917969 -10.769531 Z M 39.917969 -10.769531 "/></g></g></g><g fill="#08253f" fill-opacity="1"><g transform="translate(356.802452, 387.01477)"><g><path d="M 27.691406 -10.539062 L 22.84375 -10.539062 L 22.84375 -39.917969 L 27.457031 -39.917969 C 29.226562 -39.917969 29.691406 -40.765625 29.691406 -42.148438 L 29.691406 -48.378906 C 29.691406 -49.765625 29.226562 -50.609375 27.457031 -50.609375 L 6.078125 -50.609375 C 4.308594 -50.609375 3.847656 -49.765625 3.847656 -48.378906 L 3.847656 -42.148438 C 3.847656 -40.765625 4.308594 -39.917969 6.078125 -39.917969 L 10.769531 -39.917969 L 10.769531 -10.539062 L 5.921875 -10.539062 C 4.152344 -10.539062 3.691406 -9.691406 3.691406 -8.308594 L 3.691406 -2.230469 C 3.691406 -0.847656 4.152344 0 5.921875 0 L 27.691406 0 C 29.457031 0 29.921875 -0.847656 29.921875 -2.230469 L 29.921875 -8.308594 C 29.921875 -9.691406 29.457031 -10.539062 27.691406 -10.539062 Z M 27.691406 -10.539062 "/></g></g></g><g fill="#08253f" fill-opacity="1"><g transform="translate(387.645124, 387.01477)"><g><path d="M 43.304688 -28.226562 L 26.460938 -28.226562 C 24.691406 -28.226562 24.226562 -27.382812 24.226562 -25.996094 L 24.226562 -20 C 24.226562 -18.613281 24.691406 -17.765625 26.460938 -17.765625 L 33.382812 -17.765625 C 33.382812 -11.84375 29.84375 -9.539062 24.84375 -9.539062 C 19.765625 -9.539062 16.382812 -12.382812 16.382812 -17.304688 L 16.382812 -32.765625 C 16.382812 -37.6875 19.765625 -41.074219 24.84375 -41.074219 C 29.996094 -41.074219 32.765625 -38.765625 33.613281 -36.382812 C 33.996094 -35.304688 33.6875 -33.765625 35.84375 -33.765625 L 43.304688 -33.765625 C 45.074219 -33.765625 45.535156 -34.074219 45.535156 -35.917969 C 45.535156 -46.226562 34.457031 -51.765625 24.84375 -51.765625 C 15.769531 -51.765625 4.152344 -46.609375 4.152344 -34.457031 L 4.152344 -15.535156 C 4.152344 -3.460938 15.769531 1.152344 24.84375 1.152344 C 33.613281 1.152344 44.84375 -3.769531 45.535156 -14.84375 L 45.535156 -25.996094 C 45.535156 -27.382812 45.074219 -28.226562 43.304688 -28.226562 Z M 43.304688 -28.226562 "/></g></g></g><g fill="#08253f" fill-opacity="1"><g transform="translate(434.024509, 387.01477)"><g><path d="M 42.378906 -10.769531 L 17.84375 -10.769531 L 17.84375 -20.921875 L 38.457031 -20.921875 C 40.226562 -20.921875 40.6875 -21.765625 40.6875 -23.152344 L 40.6875 -29.152344 C 40.6875 -30.535156 40.226562 -31.382812 38.457031 -31.382812 L 17.84375 -31.382812 L 17.84375 -39.765625 L 41.074219 -39.765625 C 42.84375 -39.765625 43.304688 -40.613281 43.304688 -41.996094 L 43.304688 -48.378906 C 43.304688 -49.765625 42.84375 -50.609375 41.074219 -50.609375 L 7.921875 -50.609375 C 6.152344 -50.609375 5.691406 -49.765625 5.691406 -48.378906 L 5.691406 -2.230469 C 5.691406 -0.847656 6.152344 0 7.921875 0 L 42.378906 0 C 44.148438 0 44.609375 -0.847656 44.609375 -2.230469 L 44.609375 -8.539062 C 44.609375 -9.921875 44.148438 -10.769531 42.378906 -10.769531 Z M 42.378906 -10.769531 "/></g></g></g><g fill="#08253f" fill-opacity="1"><g transform="translate(478.942523, 387.01477)"><g><path d="M 44.535156 -50.609375 L 37.148438 -50.609375 C 35.765625 -50.609375 34.917969 -50.148438 34.917969 -48.378906 L 34.917969 -21.691406 L 18.613281 -47.996094 C 17.613281 -49.535156 17.074219 -50.609375 15.152344 -50.609375 L 7.921875 -50.609375 C 6.152344 -50.609375 5.691406 -49.765625 5.691406 -48.378906 L 5.691406 -2.230469 C 5.691406 -0.460938 6.539062 0 7.921875 0 L 15.535156 0 C 16.921875 0 17.765625 -0.460938 17.765625 -2.230469 L 17.765625 -28.996094 L 34.074219 -2.613281 C 35.074219 -1.078125 35.613281 0 37.535156 0 L 44.535156 0 C 46.304688 0 46.765625 -0.847656 46.765625 -2.230469 L 46.765625 -48.378906 C 46.765625 -50.148438 45.917969 -50.609375 44.535156 -50.609375 Z M 44.535156 -50.609375 "/></g></g></g><g fill="#08253f" fill-opacity="1"><g transform="translate(528.090842, 387.01477)"><g><path d="M 39.917969 -50.609375 L 4.230469 -50.609375 C 2.460938 -50.609375 2 -49.765625 2 -48.378906 L 2 -41.996094 C 2 -40.613281 2.460938 -39.765625 4.230469 -39.765625 L 16.074219 -39.765625 L 16.074219 -2.230469 C 16.074219 -0.460938 16.921875 0 18.304688 0 L 25.921875 0 C 27.304688 0 28.152344 -0.460938 28.152344 -2.230469 L 28.152344 -39.765625 L 39.917969 -39.765625 C 41.6875 -39.765625 42.148438 -40.613281 42.148438 -41.996094 L 42.148438 -48.378906 C 42.148438 -49.765625 41.6875 -50.609375 39.917969 -50.609375 Z M 39.917969 -50.609375 "/></g></g></g><g fill="#08253f" fill-opacity="1"><g transform="translate(568.932378, 387.01477)"><g><path d="M 42.378906 -10.769531 L 17.84375 -10.769531 L 17.84375 -20.921875 L 38.457031 -20.921875 C 40.226562 -20.921875 40.6875 -21.765625 40.6875 -23.152344 L 40.6875 -29.152344 C 40.6875 -30.535156 40.226562 -31.382812 38.457031 -31.382812 L 17.84375 -31.382812 L 17.84375 -39.765625 L 41.074219 -39.765625 C 42.84375 -39.765625 43.304688 -40.613281 43.304688 -41.996094 L 43.304688 -48.378906 C 43.304688 -49.765625 42.84375 -50.609375 41.074219 -50.609375 L 7.921875 -50.609375 C 6.152344 -50.609375 5.691406 -49.765625 5.691406 -48.378906 L 5.691406 -2.230469 C 5.691406 -0.847656 6.152344 0 7.921875 0 L 42.378906 0 C 44.148438 0 44.609375 -0.847656 44.609375 -2.230469 L 44.609375 -8.539062 C 44.609375 -9.921875 44.148438 -10.769531 42.378906 -10.769531 Z M 42.378906 -10.769531 "/></g></g></g><g fill="#08253f" fill-opacity="1"><g transform="translate(613.850392, 387.01477)"><g><path d="M 29.535156 -29.382812 C 26.460938 -30.613281 15.152344 -32.304688 15.152344 -36.996094 C 15.152344 -40.457031 19.382812 -41.457031 21.921875 -41.457031 C 24.226562 -41.457031 26.996094 -40.765625 28.457031 -39.378906 C 29.382812 -38.457031 29.765625 -37.84375 30.074219 -37.074219 C 30.457031 -36.074219 30.6875 -34.996094 32.152344 -34.996094 L 39.6875 -34.996094 C 41.457031 -34.996094 41.917969 -35.304688 41.917969 -37.148438 C 41.917969 -47.304688 31.226562 -51.765625 21.460938 -51.765625 C 11.84375 -51.378906 2.769531 -46.457031 2.769531 -36.457031 C 2.769531 -26.691406 9.921875 -23.613281 17.691406 -21.152344 C 24.226562 -19.074219 31.074219 -19 31.074219 -14.691406 C 31.074219 -10.382812 27.691406 -9.460938 23.535156 -9.460938 C 20.691406 -9.460938 17.535156 -10.152344 16 -12 C 15 -13.152344 14.613281 -14.152344 14.535156 -15.152344 C 14.382812 -17.074219 13.539062 -17.304688 11.769531 -17.304688 L 4.308594 -17.304688 C 2.539062 -17.304688 2.078125 -16.921875 2.078125 -15.152344 C 2.078125 -4.382812 13.152344 1.152344 22.765625 1.152344 C 34.613281 1.152344 43.226562 -4.078125 43.226562 -15 C 43.226562 -25.460938 35.074219 -27.691406 29.535156 -29.382812 Z M 29.535156 -29.382812 "/></g></g></g><g fill="#08253f" fill-opacity="1"><g transform="translate(166.519826, 469.814712)"><g><path d="M 43.871094 -11.148438 L 18.472656 -11.148438 L 18.472656 -21.65625 L 39.8125 -21.65625 C 41.644531 -21.65625 42.121094 -22.535156 42.121094 -23.964844 L 42.121094 -30.175781 C 42.121094 -31.609375 41.644531 -32.488281 39.8125 -32.488281 L 18.472656 -32.488281 L 18.472656 -41.164062 L 42.519531 -41.164062 C 44.351562 -41.164062 44.828125 -42.042969 44.828125 -43.472656 L 44.828125 -50.082031 C 44.828125 -51.515625 44.351562 -52.390625 42.519531 -52.390625 L 8.203125 -52.390625 C 6.371094 -52.390625 5.890625 -51.515625 5.890625 -50.082031 L 5.890625 -2.308594 C 5.890625 -0.875 6.371094 0 8.203125 0 L 43.871094 0 C 45.703125 0 46.183594 -0.875 46.183594 -2.308594 L 46.183594 -8.839844 C 46.183594 -10.269531 45.703125 -11.148438 43.871094 -11.148438 Z M 43.871094 -11.148438 "/></g></g></g><g fill="#08253f" fill-opacity="1"><g transform="translate(213.016575, 469.814712)"><g><path d="M 46.101562 -52.390625 L 38.457031 -52.390625 C 37.023438 -52.390625 36.148438 -51.914062 36.148438 -50.082031 L 36.148438 -22.453125 L 19.269531 -49.683594 C 18.234375 -51.277344 17.675781 -52.390625 15.6875 -52.390625 L 8.203125 -52.390625 C 6.371094 -52.390625 5.890625 -51.515625 5.890625 -50.082031 L 5.890625 -2.308594 C 5.890625 -0.476562 6.769531 0 8.203125 0 L 16.085938 0 C 17.515625 0 18.394531 -0.476562 18.394531 -2.308594 L 18.394531 -30.019531 L 35.273438 -2.707031 C 36.308594 -1.113281 36.867188 0 38.855469 0 L 46.101562 0 C 47.933594 0 48.410156 -0.875 48.410156 -2.308594 L 48.410156 -50.082031 C 48.410156 -51.914062 47.535156 -52.390625 46.101562 -52.390625 Z M 46.101562 -52.390625 "/></g></g></g><g fill="#08253f" fill-opacity="1"><g transform="translate(263.89234, 469.814712)"><g><path d="M 48.808594 -2.546875 L 37.582031 -18.871094 C 42.519531 -20.542969 48.648438 -26.355469 48.648438 -34.714844 C 48.648438 -39.8125 46.976562 -44.351562 44.03125 -47.21875 C 40.6875 -50.5625 36.867188 -52.3125 28.1875 -52.3125 L 8.121094 -52.3125 C 6.289062 -52.3125 5.890625 -51.4375 5.890625 -50.003906 L 5.890625 -2.308594 C 5.890625 -0.476562 6.6875 0 8.121094 0 L 16.003906 0 C 17.4375 0 18.3125 -0.476562 18.3125 -2.308594 L 18.3125 -41.164062 L 28.902344 -41.164062 C 33.042969 -41.164062 36.230469 -38.539062 36.230469 -34.398438 C 36.230469 -30.65625 32.566406 -27.949219 28.664062 -27.949219 L 27.070312 -27.949219 C 25.242188 -27.949219 24.761719 -27.070312 24.761719 -25.640625 L 24.761719 -19.269531 C 24.761719 -17.039062 24.921875 -16.164062 25.640625 -15.207031 L 34.238281 -2.390625 C 35.351562 -0.714844 36.308594 0 38.21875 0 L 47.613281 0 C 49.128906 0 49.527344 -1.433594 48.808594 -2.546875 Z M 48.808594 -2.546875 "/></g></g></g><g fill="#08253f" fill-opacity="1"><g transform="translate(313.494208, 469.814712)"><g><path d="M 28.664062 -10.910156 L 23.648438 -10.910156 L 23.648438 -41.324219 L 28.425781 -41.324219 C 30.257812 -41.324219 30.734375 -42.199219 30.734375 -43.632812 L 30.734375 -50.082031 C 30.734375 -51.515625 30.257812 -52.390625 28.425781 -52.390625 L 6.289062 -52.390625 C 4.457031 -52.390625 3.980469 -51.515625 3.980469 -50.082031 L 3.980469 -43.632812 C 3.980469 -42.199219 4.457031 -41.324219 6.289062 -41.324219 L 11.148438 -41.324219 L 11.148438 -10.910156 L 6.132812 -10.910156 C 4.300781 -10.910156 3.820312 -10.03125 3.820312 -8.597656 L 3.820312 -2.308594 C 3.820312 -0.875 4.300781 0 6.132812 0 L 28.664062 0 C 30.496094 0 30.972656 -0.875 30.972656 -2.308594 L 30.972656 -8.597656 C 30.972656 -10.03125 30.496094 -10.910156 28.664062 -10.910156 Z M 28.664062 -10.910156 "/></g></g></g><g fill="#08253f" fill-opacity="1"><g transform="translate(345.420756, 469.814712)"><g><path d="M 47.21875 -3.742188 L 44.191406 -7.167969 C 46.261719 -9.792969 46.976562 -12.660156 46.976562 -16.722656 L 46.976562 -35.511719 C 46.976562 -48.09375 35.035156 -53.507812 25.558594 -53.507812 C 16.085938 -53.507812 4.300781 -48.09375 4.300781 -35.511719 L 4.300781 -16.722656 C 4.300781 -4.140625 16.085938 1.273438 25.558594 1.273438 C 28.984375 1.273438 32.328125 0.957031 35.671875 -0.476562 L 39.492188 3.421875 C 40.527344 4.457031 41.800781 4.300781 43.078125 3.027344 L 46.898438 -0.078125 C 48.253906 -1.433594 48.253906 -2.785156 47.21875 -3.742188 Z M 34.558594 -34.476562 L 34.558594 -17.914062 C 34.558594 -12.820312 30.894531 -9.875 25.640625 -9.875 C 20.464844 -9.875 16.800781 -12.820312 16.800781 -17.914062 L 16.800781 -34.476562 C 16.800781 -39.574219 20.464844 -42.519531 25.640625 -42.519531 C 30.894531 -42.519531 34.558594 -39.574219 34.558594 -34.476562 Z M 34.558594 -34.476562 "/></g></g></g><g fill="#08253f" fill-opacity="1"><g transform="translate(393.430251, 469.814712)"><g><path d="M 45.066406 -52.390625 L 37.183594 -52.390625 C 35.75 -52.390625 34.875 -51.914062 34.875 -50.082031 L 34.875 -17.757812 C 34.875 -12.738281 31.53125 -9.875 26.277344 -9.875 C 21.019531 -9.875 17.757812 -12.738281 17.757812 -17.757812 L 17.757812 -50.082031 C 17.757812 -51.914062 16.878906 -52.390625 15.445312 -52.390625 L 7.5625 -52.390625 C 6.132812 -52.390625 5.253906 -51.914062 5.253906 -50.082031 L 5.253906 -16.003906 C 5.253906 -3.503906 16.800781 1.195312 26.277344 1.195312 C 35.75 1.195312 47.375 -3.503906 47.375 -16.003906 L 47.375 -50.082031 C 47.375 -51.914062 46.5 -52.390625 45.066406 -52.390625 Z M 45.066406 -52.390625 "/></g></g></g><g fill="#08253f" fill-opacity="1"><g transform="translate(442.634016, 469.814712)"><g><path d="M 43.871094 -11.148438 L 18.472656 -11.148438 L 18.472656 -21.65625 L 39.8125 -21.65625 C 41.644531 -21.65625 42.121094 -22.535156 42.121094 -23.964844 L 42.121094 -30.175781 C 42.121094 -31.609375 41.644531 -32.488281 39.8125 -32.488281 L 18.472656 -32.488281 L 18.472656 -41.164062 L 42.519531 -41.164062 C 44.351562 -41.164062 44.828125 -42.042969 44.828125 -43.472656 L 44.828125 -50.082031 C 44.828125 -51.515625 44.351562 -52.390625 42.519531 -52.390625 L 8.203125 -52.390625 C 6.371094 -52.390625 5.890625 -51.515625 5.890625 -50.082031 L 5.890625 -2.308594 C 5.890625 -0.875 6.371094 0 8.203125 0 L 43.871094 0 C 45.703125 0 46.183594 -0.875 46.183594 -2.308594 L 46.183594 -8.839844 C 46.183594 -10.269531 45.703125 -11.148438 43.871094 -11.148438 Z M 43.871094 -11.148438 "/></g></g></g><g fill="#08253f" fill-opacity="1"><g transform="translate(489.130775, 469.814712)"><g><path d="M 46.261719 -15.527344 C 46.261719 -17.4375 45.625 -18.234375 43.871094 -18.234375 L 36.070312 -18.234375 C 34.316406 -18.234375 34.160156 -16.960938 33.917969 -15.367188 C 33.28125 -11.546875 29.859375 -9.953125 25.558594 -9.953125 C 20.304688 -9.953125 16.722656 -12.820312 16.722656 -17.914062 L 16.722656 -34.476562 C 16.722656 -39.492188 20.304688 -42.4375 25.558594 -42.4375 C 29.859375 -42.4375 32.089844 -41.246094 33.761719 -38.617188 C 34.398438 -37.660156 34.476562 -36.148438 36.148438 -36.148438 L 43.792969 -36.148438 C 45.625 -36.148438 46.261719 -36.546875 46.261719 -38.457031 C 45.226562 -48.570312 35.433594 -53.585938 25.558594 -53.585938 C 16.085938 -53.585938 4.21875 -48.09375 4.21875 -35.589844 L 4.21875 -16.800781 C 4.21875 -4.300781 16.085938 1.195312 25.558594 1.195312 C 35.433594 1.195312 46.261719 -5.253906 46.261719 -15.527344 Z M 46.261719 -15.527344 "/></g></g></g><g fill="#08253f" fill-opacity="1"><g transform="translate(536.025617, 469.814712)"><g><path d="M 43.871094 -11.148438 L 18.472656 -11.148438 L 18.472656 -21.65625 L 39.8125 -21.65625 C 41.644531 -21.65625 42.121094 -22.535156 42.121094 -23.964844 L 42.121094 -30.175781 C 42.121094 -31.609375 41.644531 -32.488281 39.8125 -32.488281 L 18.472656 -32.488281 L 18.472656 -41.164062 L 42.519531 -41.164062 C 44.351562 -41.164062 44.828125 -42.042969 44.828125 -43.472656 L 44.828125 -50.082031 C 44.828125 -51.515625 44.351562 -52.390625 42.519531 -52.390625 L 8.203125 -52.390625 C 6.371094 -52.390625 5.890625 -51.515625 5.890625 -50.082031 L 5.890625 -2.308594 C 5.890625 -0.875 6.371094 0 8.203125 0 L 43.871094 0 C 45.703125 0 46.183594 -0.875 46.183594 -2.308594 L 46.183594 -8.839844 C 46.183594 -10.269531 45.703125 -11.148438 43.871094 -11.148438 Z M 43.871094 -11.148438 "/></g></g></g><g fill="#08253f" fill-opacity="1"><g transform="translate(582.522376, 469.814712)"><g><path d="M 52.871094 -52.472656 L 45.226562 -52.472656 C 42.597656 -52.472656 42.199219 -50.71875 41.644531 -49.765625 L 30.65625 -30.175781 L 19.746094 -49.765625 C 19.109375 -50.71875 18.792969 -52.472656 16.085938 -52.472656 L 8.203125 -52.472656 C 6.371094 -52.472656 5.890625 -51.597656 5.890625 -50.164062 L 5.890625 -2.308594 C 5.890625 -0.476562 6.769531 0 8.203125 0 L 16.085938 0 C 17.515625 0 18.394531 -0.476562 18.394531 -2.308594 L 18.394531 -29.300781 L 26.433594 -15.367188 C 26.832031 -14.730469 27.46875 -13.695312 28.664062 -13.695312 L 32.644531 -13.695312 C 33.839844 -13.695312 34.558594 -14.730469 34.953125 -15.367188 L 42.917969 -29.300781 L 42.917969 -2.308594 C 42.917969 -0.476562 43.792969 0 45.226562 0 L 52.871094 0 C 54.304688 0 55.179688 -0.476562 55.179688 -2.308594 L 55.179688 -50.164062 C 55.179688 -51.597656 54.703125 -52.472656 52.871094 -52.472656 Z M 52.871094 -52.472656 "/></g></g></g><g fill="#08253f" fill-opacity="1"><g transform="translate(217.357803, 549.221213)"><g><path d="M 42.378906 -10.769531 L 17.84375 -10.769531 L 17.84375 -20.921875 L 38.457031 -20.921875 C 40.226562 -20.921875 40.6875 -21.765625 40.6875 -23.152344 L 40.6875 -29.152344 C 40.6875 -30.535156 40.226562 -31.382812 38.457031 -31.382812 L 17.84375 -31.382812 L 17.84375 -39.765625 L 41.074219 -39.765625 C 42.84375 -39.765625 43.304688 -40.613281 43.304688 -41.996094 L 43.304688 -48.378906 C 43.304688 -49.765625 42.84375 -50.609375 41.074219 -50.609375 L 7.921875 -50.609375 C 6.152344 -50.609375 5.691406 -49.765625 5.691406 -48.378906 L 5.691406 -2.230469 C 5.691406 -0.847656 6.152344 0 7.921875 0 L 42.378906 0 C 44.148438 0 44.609375 -0.847656 44.609375 -2.230469 L 44.609375 -8.539062 C 44.609375 -9.921875 44.148438 -10.769531 42.378906 -10.769531 Z M 42.378906 -10.769531 "/></g></g></g><g fill="#08253f" fill-opacity="1"><g transform="translate(262.275822, 549.221213)"><g><path d="M 51.070312 -50.6875 L 43.6875 -50.6875 C 41.148438 -50.6875 40.765625 -48.996094 40.226562 -48.074219 L 29.613281 -29.152344 L 19.074219 -48.074219 C 18.460938 -48.996094 18.152344 -50.6875 15.535156 -50.6875 L 7.921875 -50.6875 C 6.152344 -50.6875 5.691406 -49.839844 5.691406 -48.457031 L 5.691406 -2.230469 C 5.691406 -0.460938 6.539062 0 7.921875 0 L 15.535156 0 C 16.921875 0 17.765625 -0.460938 17.765625 -2.230469 L 17.765625 -28.304688 L 25.535156 -14.84375 C 25.921875 -14.230469 26.535156 -13.230469 27.691406 -13.230469 L 31.535156 -13.230469 C 32.6875 -13.230469 33.382812 -14.230469 33.765625 -14.84375 L 41.457031 -28.304688 L 41.457031 -2.230469 C 41.457031 -0.460938 42.304688 0 43.6875 0 L 51.070312 0 C 52.457031 0 53.300781 -0.460938 53.300781 -2.230469 L 53.300781 -48.457031 C 53.300781 -49.839844 52.839844 -50.6875 51.070312 -50.6875 Z M 51.070312 -50.6875 "/></g></g></g><g fill="#08253f" fill-opacity="1"><g transform="translate(317.961872, 549.221213)"><g><path d="M 25.226562 -50.609375 L 7.921875 -50.609375 C 6.152344 -50.609375 5.691406 -49.765625 5.691406 -48.378906 L 5.691406 -2.230469 C 5.691406 -0.460938 6.539062 0 7.921875 0 L 15.535156 0 C 16.921875 0 17.765625 -0.460938 17.765625 -2.230469 L 17.765625 -15 L 25.152344 -15 C 38.304688 -15 45.378906 -22.074219 45.378906 -32.765625 C 45.378906 -43.378906 38.457031 -50.609375 25.226562 -50.609375 Z M 25.152344 -25.382812 L 17.765625 -25.382812 L 17.765625 -39.765625 L 25.152344 -39.765625 C 31.152344 -39.765625 33.765625 -36.535156 33.765625 -32.535156 C 33.765625 -28.691406 31.152344 -25.382812 25.152344 -25.382812 Z M 25.152344 -25.382812 "/></g></g></g><g fill="#08253f" fill-opacity="1"><g transform="translate(362.95681, 549.221213)"><g><path d="M 47.148438 -2.460938 L 36.304688 -18.230469 C 41.074219 -19.84375 46.996094 -25.460938 46.996094 -33.535156 C 46.996094 -38.457031 45.378906 -42.84375 42.535156 -45.609375 C 39.304688 -48.839844 35.613281 -50.535156 27.226562 -50.535156 L 7.84375 -50.535156 C 6.078125 -50.535156 5.691406 -49.6875 5.691406 -48.304688 L 5.691406 -2.230469 C 5.691406 -0.460938 6.460938 0 7.84375 0 L 15.460938 0 C 16.84375 0 17.691406 -0.460938 17.691406 -2.230469 L 17.691406 -39.765625 L 27.921875 -39.765625 C 31.921875 -39.765625 34.996094 -37.226562 34.996094 -33.226562 C 34.996094 -29.613281 31.457031 -26.996094 27.691406 -26.996094 L 26.152344 -26.996094 C 24.382812 -26.996094 23.921875 -26.152344 23.921875 -24.765625 L 23.921875 -18.613281 C 23.921875 -16.460938 24.074219 -15.613281 24.765625 -14.691406 L 33.074219 -2.308594 C 34.152344 -0.691406 35.074219 0 36.917969 0 L 45.996094 0 C 47.457031 0 47.839844 -1.382812 47.148438 -2.460938 Z M 47.148438 -2.460938 "/></g></g></g><g fill="#08253f" fill-opacity="1"><g transform="translate(410.87449, 549.221213)"><g><path d="M 42.378906 -10.769531 L 17.84375 -10.769531 L 17.84375 -20.921875 L 38.457031 -20.921875 C 40.226562 -20.921875 40.6875 -21.765625 40.6875 -23.152344 L 40.6875 -29.152344 C 40.6875 -30.535156 40.226562 -31.382812 38.457031 -31.382812 L 17.84375 -31.382812 L 17.84375 -39.765625 L 41.074219 -39.765625 C 42.84375 -39.765625 43.304688 -40.613281 43.304688 -41.996094 L 43.304688 -48.378906 C 43.304688 -49.765625 42.84375 -50.609375 41.074219 -50.609375 L 7.921875 -50.609375 C 6.152344 -50.609375 5.691406 -49.765625 5.691406 -48.378906 L 5.691406 -2.230469 C 5.691406 -0.847656 6.152344 0 7.921875 0 L 42.378906 0 C 44.148438 0 44.609375 -0.847656 44.609375 -2.230469 L 44.609375 -8.539062 C 44.609375 -9.921875 44.148438 -10.769531 42.378906 -10.769531 Z M 42.378906 -10.769531 "/></g></g></g><g fill="#08253f" fill-opacity="1"><g transform="translate(455.792504, 549.221213)"><g><path d="M 29.535156 -29.382812 C 26.460938 -30.613281 15.152344 -32.304688 15.152344 -36.996094 C 15.152344 -40.457031 19.382812 -41.457031 21.921875 -41.457031 C 24.226562 -41.457031 26.996094 -40.765625 28.457031 -39.378906 C 29.382812 -38.457031 29.765625 -37.84375 30.074219 -37.074219 C 30.457031 -36.074219 30.6875 -34.996094 32.152344 -34.996094 L 39.6875 -34.996094 C 41.457031 -34.996094 41.917969 -35.304688 41.917969 -37.148438 C 41.917969 -47.304688 31.226562 -51.765625 21.460938 -51.765625 C 11.84375 -51.378906 2.769531 -46.457031 2.769531 -36.457031 C 2.769531 -26.691406 9.921875 -23.613281 17.691406 -21.152344 C 24.226562 -19.074219 31.074219 -19 31.074219 -14.691406 C 31.074219 -10.382812 27.691406 -9.460938 23.535156 -9.460938 C 20.691406 -9.460938 17.535156 -10.152344 16 -12 C 15 -13.152344 14.613281 -14.152344 14.535156 -15.152344 C 14.382812 -17.074219 13.539062 -17.304688 11.769531 -17.304688 L 4.308594 -17.304688 C 2.539062 -17.304688 2.078125 -16.921875 2.078125 -15.152344 C 2.078125 -4.382812 13.152344 1.152344 22.765625 1.152344 C 34.613281 1.152344 43.226562 -4.078125 43.226562 -15 C 43.226562 -25.460938 35.074219 -27.691406 29.535156 -29.382812 Z M 29.535156 -29.382812 "/></g></g></g><g fill="#08253f" fill-opacity="1"><g transform="translate(499.018396, 549.221213)"><g><path d="M 49.226562 -2.152344 L 32.226562 -48.226562 C 31.535156 -49.839844 30.765625 -50.609375 29.074219 -50.609375 L 21.691406 -50.609375 C 20 -50.609375 19.152344 -49.839844 18.535156 -48.226562 L 1.460938 -2.152344 C 1.078125 -1.230469 1.078125 0 2.769531 0 L 10.84375 0 C 12.539062 0 13.152344 -0.460938 13.769531 -2.308594 L 15.921875 -8.382812 L 34.765625 -8.382812 L 36.917969 -2.308594 C 37.535156 -0.460938 38.148438 0 39.84375 0 L 47.917969 0 C 49.609375 0 49.609375 -1.230469 49.226562 -2.152344 Z M 25.382812 -36.148438 L 31.152344 -19.152344 L 19.613281 -19.152344 Z M 25.382812 -36.148438 "/></g></g></g><g fill="#08253f" fill-opacity="1"><g transform="translate(546.090014, 549.221213)"><g><path d="M 29.535156 -29.382812 C 26.460938 -30.613281 15.152344 -32.304688 15.152344 -36.996094 C 15.152344 -40.457031 19.382812 -41.457031 21.921875 -41.457031 C 24.226562 -41.457031 26.996094 -40.765625 28.457031 -39.378906 C 29.382812 -38.457031 29.765625 -37.84375 30.074219 -37.074219 C 30.457031 -36.074219 30.6875 -34.996094 32.152344 -34.996094 L 39.6875 -34.996094 C 41.457031 -34.996094 41.917969 -35.304688 41.917969 -37.148438 C 41.917969 -47.304688 31.226562 -51.765625 21.460938 -51.765625 C 11.84375 -51.378906 2.769531 -46.457031 2.769531 -36.457031 C 2.769531 -26.691406 9.921875 -23.613281 17.691406 -21.152344 C 24.226562 -19.074219 31.074219 -19 31.074219 -14.691406 C 31.074219 -10.382812 27.691406 -9.460938 23.535156 -9.460938 C 20.691406 -9.460938 17.535156 -10.152344 16 -12 C 15 -13.152344 14.613281 -14.152344 14.535156 -15.152344 C 14.382812 -17.074219 13.539062 -17.304688 11.769531 -17.304688 L 4.308594 -17.304688 C 2.539062 -17.304688 2.078125 -16.921875 2.078125 -15.152344 C 2.078125 -4.382812 13.152344 1.152344 22.765625 1.152344 C 34.613281 1.152344 43.226562 -4.078125 43.226562 -15 C 43.226562 -25.460938 35.074219 -27.691406 29.535156 -29.382812 Z M 29.535156 -29.382812 "/></g></g></g></svg>