<svg xmlns="http://www.w3.org/2000/svg" xmlns:xlink="http://www.w3.org/1999/xlink" width="150" zoomAndPan="magnify" viewBox="0 0 112.5 37.5" height="50" preserveAspectRatio="xMidYMid meet" version="1.0"><defs><g/><clipPath id="02f0a6d8de"><path d="M 0.492188 0 L 111.511719 0 L 111.511719 37.007812 L 0.492188 37.007812 Z M 0.492188 0 " clip-rule="nonzero"/></clipPath></defs><g clip-path="url(#02f0a6d8de)"><path fill="#ffffff" d="M 0.492188 0 L 111.511719 0 L 111.511719 37.007812 L 0.492188 37.007812 Z M 0.492188 0 " fill-opacity="1" fill-rule="nonzero"/><path fill="#08253f" d="M 0.492188 0 L 111.511719 0 L 111.511719 37.007812 L 0.492188 37.007812 Z M 0.492188 0 " fill-opacity="1" fill-rule="nonzero"/></g><g fill="#ffffff" fill-opacity="1"><g transform="translate(32.095494, 27.295926)"><g><path d="M 13.457031 -17.0625 L 1.425781 -17.0625 C 0.828125 -17.0625 0.675781 -16.777344 0.675781 -16.308594 L 0.675781 -14.15625 C 0.675781 -13.691406 0.828125 -13.40625 1.425781 -13.40625 L 5.417969 -13.40625 L 5.417969 -0.753906 C 5.417969 -0.15625 5.703125 0 6.171875 0 L 8.738281 0 C 9.207031 0 9.492188 -0.15625 9.492188 -0.753906 L 9.492188 -13.40625 L 13.457031 -13.40625 C 14.054688 -13.40625 14.210938 -13.691406 14.210938 -14.15625 L 14.210938 -16.308594 C 14.210938 -16.777344 14.054688 -17.0625 13.457031 -17.0625 Z M 13.457031 -17.0625 "/></g></g></g><g fill="#ffffff" fill-opacity="1"><g transform="translate(46.978716, 27.295926)"><g><path d="M 15.894531 -0.828125 L 12.238281 -6.144531 C 13.847656 -6.691406 15.84375 -8.582031 15.84375 -11.304688 C 15.84375 -12.964844 15.296875 -14.441406 14.339844 -15.375 C 13.25 -16.464844 12.003906 -17.035156 9.179688 -17.035156 L 2.644531 -17.035156 C 2.046875 -17.035156 1.917969 -16.75 1.917969 -16.285156 L 1.917969 -0.753906 C 1.917969 -0.15625 2.179688 0 2.644531 0 L 5.210938 0 C 5.679688 0 5.964844 -0.15625 5.964844 -0.753906 L 5.964844 -13.40625 L 9.414062 -13.40625 C 10.761719 -13.40625 11.796875 -12.550781 11.796875 -11.203125 C 11.796875 -9.984375 10.605469 -9.101562 9.335938 -9.101562 L 8.816406 -9.101562 C 8.21875 -9.101562 8.0625 -8.816406 8.0625 -8.347656 L 8.0625 -6.273438 C 8.0625 -5.550781 8.117188 -5.265625 8.347656 -4.953125 L 11.148438 -0.777344 C 11.511719 -0.234375 11.824219 0 12.445312 0 L 15.507812 0 C 16 0 16.128906 -0.464844 15.894531 -0.828125 Z M 15.894531 -0.828125 "/></g></g></g><g fill="#ffffff" fill-opacity="1"><g transform="translate(64.247402, 27.295926)"><g><path d="M 14.910156 -17.0625 L 12.109375 -17.0625 C 11.511719 -17.0625 11.253906 -16.984375 10.917969 -16.285156 L 7.988281 -10.710938 L 4.953125 -16.285156 C 4.589844 -16.984375 4.332031 -17.0625 3.734375 -17.0625 L 0.753906 -17.0625 C 0.257812 -17.0625 0.207031 -16.621094 0.335938 -16.335938 L 5.886719 -6.40625 L 5.886719 -0.753906 C 5.886719 -0.15625 6.144531 0 6.636719 0 L 9.230469 0 C 9.699219 0 9.984375 -0.15625 9.984375 -0.753906 L 9.984375 -6.40625 L 15.324219 -16.335938 C 15.453125 -16.621094 15.402344 -17.0625 14.910156 -17.0625 Z M 14.910156 -17.0625 "/></g></g></g></svg>